<?xml version="1.0" standalone="no"?>
<!DOCTYPE svg PUBLIC "-//W3C//DTD SVG 20010904//EN"
 "http://www.w3.org/TR/2001/REC-SVG-20010904/DTD/svg10.dtd">
<svg version="1.0" xmlns="http://www.w3.org/2000/svg"
 width="820.000000pt" height="600.000000pt" viewBox="0 0 820.000000 600.000000"
 preserveAspectRatio="xMidYMid meet">

<g transform="translate(0.000000,600.000000) scale(0.100000,-0.100000)"
fill="#000000" stroke="none">
<path d="M2035 3250 c-13 -20 8 -51 79 -117 82 -76 99 -84 476 -218 168 -60
444 -163 583 -218 15 -6 27 -15 27 -19 0 -4 -26 -21 -58 -37 -57 -29 -58 -29
-303 -36 l-246 -8 -59 38 c-71 46 -312 221 -574 418 l-195 147 -132 -2 c-73
-2 -133 -3 -133 -4 0 -1 253 -619 267 -651 7 -18 -35 -17 -107 2 -80 21 -211
32 -294 26 l-68 -6 93 -34 c181 -66 255 -105 283 -149 28 -45 -7 -36 386 -102
129 -22 408 -64 620 -95 l385 -55 533 0 532 0 0 -45 c0 -25 1 -45 3 -45 1 0
38 -7 82 -16 93 -18 226 -20 284 -4 l41 11 0 74 0 75 44 0 44 0 11 -50 c6 -28
11 -57 11 -64 0 -21 213 -30 338 -15 l102 12 0 94 c0 51 3 93 6 93 3 0 60 7
127 15 67 8 232 23 367 35 408 34 582 60 801 120 136 38 312 100 394 141 73
35 135 97 135 132 0 47 -80 99 -222 143 -46 14 -129 48 -185 75 -139 67 -175
73 -443 65 -356 -9 -539 -31 -1174 -141 -661 -115 -686 -119 -891 -119 l-180
0 -200 51 c-316 81 -881 240 -1100 308 -60 19 -179 68 -263 110 -148 72 -211
90 -227 65z"/>
</g>
</svg>
