<?xml version="1.0" standalone="no"?>
<!DOCTYPE svg PUBLIC "-//W3C//DTD SVG 20010904//EN"
 "http://www.w3.org/TR/2001/REC-SVG-20010904/DTD/svg10.dtd">
<svg version="1.0" xmlns="http://www.w3.org/2000/svg"
 width="920.000000pt" height="512.000000pt" viewBox="0 0 920.000000 512.000000"
 preserveAspectRatio="xMidYMid meet">

<g transform="translate(0.000000,512.000000) scale(0.100000,-0.100000)"
fill="#000000" stroke="none">
<path d="M2945 3945 c-81 -17 -136 -41 -220 -91 -91 -55 -112 -76 -126 -123
-14 -48 0 -97 39 -133 15 -14 259 -175 542 -358 283 -183 519 -337 523 -341 5
-4 -49 -37 -120 -75 -70 -37 -209 -113 -308 -168 -99 -55 -200 -111 -225 -124
l-45 -24 -270 143 c-148 79 -292 151 -320 161 -101 35 -265 9 -331 -53 -33
-31 -50 -90 -37 -132 5 -17 77 -152 160 -298 l150 -267 -64 -63 c-91 -90 -117
-137 -108 -195 19 -131 204 -204 448 -177 348 39 1439 308 2162 533 1294 403
2072 785 2296 1128 94 143 89 290 -12 391 -37 38 -128 85 -193 102 l-46 11
-406 -187 c-223 -103 -408 -185 -410 -182 -2 2 -1 41 3 87 l8 84 258 117 c142
64 261 120 264 123 11 10 -314 7 -390 -5 -237 -34 -561 -126 -920 -259 -134
-49 -250 -90 -260 -90 -9 0 -135 31 -279 69 -931 246 -1480 390 -1526 400 -68
14 -161 13 -237 -4z"/>
<path d="M5955 2386 c-16 -7 -227 -82 -469 -166 -241 -85 -449 -162 -462 -173
-49 -38 -37 -63 119 -240 79 -89 230 -261 336 -381 106 -121 204 -229 218
-239 47 -37 98 -33 199 16 151 74 231 176 255 325 10 59 5 111 -35 447 -44
371 -46 381 -71 403 -30 25 -47 27 -90 8z"/>
</g>
</svg>
